<svg width="15" height="15" viewBox="0 0 15 15" fill="none" xmlns="http://www.w3.org/2000/svg">
<path d="M7.49986 13.9287C6.22841 13.9287 4.98551 13.5516 3.92834 12.8453C2.87117 12.1389 2.0472 11.1349 1.56064 9.96022C1.07407 8.78555 0.946767 7.49298 1.19482 6.24596C1.44286 4.99893 2.05512 3.85347 2.95418 2.95442C3.85323 2.05537 4.99869 1.44311 6.24571 1.19506C7.49273 0.947011 8.7853 1.07432 9.95997 1.56088C11.1346 2.04745 12.1386 2.87141 12.845 3.92858C13.5514 4.98576 13.9284 6.22866 13.9284 7.50011C13.9266 9.2045 13.2487 10.8386 12.0435 12.0438C10.8383 13.249 9.20426 13.9268 7.49986 13.9287ZM7.49986 2.14296C6.44032 2.14296 5.40457 2.45716 4.52359 3.04581C3.64262 3.63446 2.95598 4.47113 2.55051 5.45002C2.14504 6.42891 2.03895 7.50605 2.24566 8.54523C2.45236 9.58442 2.96258 10.539 3.71179 11.2882C4.461 12.0374 5.41555 12.5476 6.45474 12.7543C7.49392 12.961 8.57106 12.8549 9.54995 12.4495C10.5288 12.044 11.3655 11.3574 11.9542 10.4764C12.5428 9.5954 12.857 8.55965 12.857 7.50011C12.8554 6.07978 12.2905 4.71808 11.2862 3.71376C10.2819 2.70944 8.92019 2.14452 7.49986 2.14296Z" fill="#BDC1CA"/>
</svg>
